<svg xmlns="http://www.w3.org/2000/svg" width="40" height="40" fill="#fff" fill-rule="evenodd" xmlns:v="https://vecta.io/nano"><path d="M26.667 15c0 1.768-.702 3.464-1.953 4.714A6.67 6.67 0 0 1 20 21.667c-1.768 0-3.464-.702-4.714-1.953A6.67 6.67 0 0 1 13.333 15c0-1.768.702-3.464 1.953-4.714A6.67 6.67 0 0 1 20 8.333c1.768 0 3.464.702 4.714 1.953A6.67 6.67 0 0 1 26.667 15zm-3.333 0c0 .884-.351 1.732-.976 2.357s-1.473.976-2.357.976-1.732-.351-2.357-.976-.976-1.473-.976-2.357.351-1.732.976-2.357 1.473-.976 2.357-.976 1.732.351 2.357.976.976 1.473.976 2.357zM20 1.667C9.875 1.667 1.667 9.875 1.667 20S9.875 38.333 20 38.333 38.334 30.125 38.334 20 30.125 1.667 20 1.667zM5 20c0 3.483 1.188 6.69 3.18 9.237 1.399-1.837 3.203-3.325 5.272-4.349s4.347-1.556 6.656-1.554a14.97 14.97 0 0 1 6.576 1.515 14.98 14.98 0 0 1 5.244 4.249 15 15 0 0 0-7.127-23.306A15 15 0 0 0 5 20zm15 15a14.94 14.94 0 0 1-9.453-3.353c1.075-1.539 2.506-2.795 4.17-3.662a11.65 11.65 0 0 1 14.873 3.549A14.94 14.94 0 0 1 20 35z"/></svg>