<svg xmlns="http://www.w3.org/2000/svg" xmlns:xlink="http://www.w3.org/1999/xlink" width="1440" height="1149" fill="none" xmlns:v="https://vecta.io/nano"><g fill="#fff"><path d="M0 32h1440v1085H0z"/><path d="M32.353.52l31.353 31.353-31.353 31.353L1 31.873z"/><use xlink:href="#B"/><use xlink:href="#B" x="-124.956"/><use xlink:href="#B" x="124.956"/><use xlink:href="#B" x="-187.434"/><use xlink:href="#B" x="62.479"/><use xlink:href="#B" x="-62.478"/><use xlink:href="#B" x="187.435"/><use xlink:href="#B" x="249.913"/><use xlink:href="#B" x="499.827"/><use xlink:href="#B" x="374.869"/><use xlink:href="#B" x="624.783"/><use xlink:href="#B" x="874.698"/><use xlink:href="#B" x="562.304"/><path d="M719.5.52l31.353 31.353L719.5 63.225l-31.353-31.353z"/><use xlink:href="#B" x="687.261"/><use xlink:href="#B" x="749.738"/><use xlink:href="#B" x="999.648"/><use xlink:href="#B" x="312.391"/><use xlink:href="#B" x="937.178"/><use xlink:href="#B" x="812.218"/><use xlink:href="#B" x="1062.128"/><use xlink:href="#B" x="1124.608"/><path d="M32.353 1086l31.353 31.353-31.353 31.353L1 1117.353z"/><use xlink:href="#B" y="1085.48"/><use xlink:href="#B" x="-124.956" y="1085.48"/><use xlink:href="#B" x="124.956" y="1085.48"/><use xlink:href="#B" x="-187.434" y="1085.48"/><use xlink:href="#B" x="62.479" y="1085.48"/><use xlink:href="#B" x="-62.478" y="1085.48"/><use xlink:href="#B" x="187.435" y="1085.48"/><use xlink:href="#B" x="249.913" y="1085.48"/><use xlink:href="#B" x="499.827" y="1085.48"/><use xlink:href="#B" x="374.869" y="1085.48"/><use xlink:href="#B" x="624.783" y="1085.48"/><use xlink:href="#B" x="874.698" y="1085.48"/><use xlink:href="#B" x="562.304" y="1085.48"/><use xlink:href="#B" x="437.348" y="1085.48"/><use xlink:href="#B" x="687.261" y="1085.48"/><use xlink:href="#B" x="749.738" y="1085.48"/><use xlink:href="#B" x="999.648" y="1085.48"/><use xlink:href="#B" x="312.391" y="1085.48"/><use xlink:href="#B" x="937.178" y="1085.48"/><use xlink:href="#B" x="812.218" y="1085.48"/><use xlink:href="#B" x="1062.128" y="1085.48"/><use xlink:href="#B" x="1124.608" y="1085.48"/></g><defs ><path id="B" d="M282.152.52l31.353 31.353-31.353 31.353-31.353-31.353z"/></defs></svg>